<?xml version="1.0" encoding="utf-8"?>
<!-- Generator: Adobe Illustrator 26.0.0, SVG Export Plug-In . SVG Version: 6.00 Build 0)  -->
<svg version="1.1" id="Layer_1" xmlns="http://www.w3.org/2000/svg" xmlns:xlink="http://www.w3.org/1999/xlink" x="0px" y="0px"
	 viewBox="0 0 362.83 362.83" style="enable-background:new 0 0 362.83 362.83;" xml:space="preserve">
<style type="text/css">
	.st0{fill:#FFFFFF;}
</style>
<circle class="st0" cx="181.41" cy="181.41" r="180.21"/>
<path d="M173.11,3.76c5.56,0,11.12,0,16.67,0c8.58,1.16,17.24,1.93,25.74,3.53c41.84,7.87,76.66,27.82,103.41,61.09
	c20.82,25.91,33.09,55.58,37.74,88.42c4.56,32.13,1.24,63.42-11.08,93.48c-20.2,49.31-57,81.1-106.5,99.18
	c-0.7,0.26-1.5,0.26-2.34,0.39c-0.1-0.68-0.23-1.13-0.23-1.58c-0.01-34.9-0.03-69.8,0.05-104.69c0-1.2,0.72-2.68,1.59-3.56
	c9.1-9.22,18.32-18.32,27.42-27.54c1.39-1.41,2.47-1.32,4.23-0.77c3.39,1.05,6.91,2.07,10.42,2.3c14.46,0.92,28.02-8.3,32.77-21.94
	c4.72-13.55-0.18-28.74-12-37.22c-11.69-8.39-27.5-8.15-38.84,0.59c-11.63,8.96-16.03,24.35-10.61,37.89
	c0.91,2.27,0.35,3.47-1.22,5.01c-9.88,9.75-19.58,19.68-29.55,29.34c-3.68,3.57-5.23,7.52-5.22,12.61
	c0.11,37.09,0.06,74.19,0.06,111.28c0,1.36,0,2.72,0,4.5c-8.05,1-15.76,1.96-23.78,2.95c0-1.6,0-2.51,0-3.42
	c0-65.29,0.01-130.58-0.06-195.87c0-2.34,0.73-3.32,2.88-4.26c14.53-6.37,21.85-20.99,18.62-36.73
	c-3.12-15.18-16.16-25.69-31.87-25.69c-15.57,0.01-28.48,10.31-31.8,25.36c-3.43,15.6,3.8,30.51,18.26,36.88
	c2.69,1.19,3.17,2.57,3.16,5.13c-0.06,64.83-0.04,129.66-0.04,194.48c0,1.23,0,2.46,0,4.16c-8.15-1.04-15.79-2.02-23.78-3.05
	c0-1.74,0-3.1,0-4.46c0-37.32-0.03-74.65,0.04-111.97c0.01-4.57-1.42-8.2-4.71-11.42c-10.09-9.87-19.98-19.93-30.03-29.84
	c-1.57-1.54-2.12-2.74-1.21-5.02c5.76-14.49,0.29-30.98-12.9-39.5c-12.79-8.26-29.93-6.32-40.81,4.63
	c-10.77,10.84-12.64,27.82-4.44,40.48c8.53,13.16,25.06,18.63,39.57,12.92c2.23-0.88,3.46-0.47,5.05,1.14
	c8.77,8.9,17.71,17.62,26.43,26.57c1.2,1.23,2.05,3.37,2.06,5.09c0.12,33.97,0.09,67.95,0.08,101.92c0,1.09-0.14,2.17-0.27,4.1
	c-8.09-3.47-15.73-6.39-23.07-9.95c-31.06-15.05-56.25-36.79-73.88-66.6C5.19,233.58-1.02,190.02,8.43,144.18
	C23.45,71.33,78.37,18.7,151.81,6.52C158.87,5.35,166.01,4.67,173.11,3.76z M181.33,113.87c-6.5,0.05-11.69,5.16-11.74,11.57
	c-0.05,6.89,5.15,12.14,11.96,12.07c6.69-0.07,11.74-5.21,11.75-11.95C193.3,119.02,187.99,113.83,181.33,113.87z M80.99,169.54
	c-6.4-0.14-11.96,5.29-12.04,11.77c-0.08,6.53,5.26,11.93,11.79,11.93c6.85,0,11.84-4.91,11.89-11.69
	C92.69,174.76,87.77,169.69,80.99,169.54z M293.93,181.33c-0.06-6.33-5.38-11.71-11.67-11.79c-6.88-0.09-12.05,5.06-12.02,11.98
	c0.03,6.78,5.01,11.7,11.86,11.71C288.63,193.25,293.99,187.86,293.93,181.33z"/>
</svg>
